<mxfile host="app.diagrams.net" modified="2023-11-23T20:08:17.121Z" agent="Mozilla/5.0 (Windows NT 10.0; Win64; x64) AppleWebKit/537.36 (KHTML, like Gecko) Chrome/119.0.0.0 Safari/537.36" etag="mlhf-xFyZZVBi5_bOL7_" version="22.1.3" type="device">
  <diagram name="Page-1" id="YJkU0X4dK7V5afHyrBzY">
    <mxGraphModel dx="2821" dy="1798" grid="1" gridSize="10" guides="1" tooltips="1" connect="1" arrows="1" fold="1" page="1" pageScale="1" pageWidth="827" pageHeight="1169" math="0" shadow="0">
      <root>
        <mxCell id="0" />
        <mxCell id="1" parent="0" />
        <mxCell id="8rCehOjxCyW9MTJvdJmE-4" value="&lt;font style=&quot;font-size: 18px;&quot;&gt;User&lt;/font&gt;" style="whiteSpace=wrap;html=1;align=center;" vertex="1" parent="1">
          <mxGeometry x="-464" y="-30" width="100" height="40" as="geometry" />
        </mxCell>
        <mxCell id="8rCehOjxCyW9MTJvdJmE-9" value="Password" style="ellipse;whiteSpace=wrap;html=1;align=center;" vertex="1" parent="1">
          <mxGeometry x="-540" y="140" width="100" height="40" as="geometry" />
        </mxCell>
        <mxCell id="8rCehOjxCyW9MTJvdJmE-10" value="DateOfBirthday" style="ellipse;whiteSpace=wrap;html=1;align=center;" vertex="1" parent="1">
          <mxGeometry x="-430" y="150" width="100" height="40" as="geometry" />
        </mxCell>
        <mxCell id="8rCehOjxCyW9MTJvdJmE-12" value="" style="endArrow=none;html=1;rounded=0;entryX=0;entryY=1;entryDx=0;entryDy=0;exitX=0.767;exitY=0.017;exitDx=0;exitDy=0;exitPerimeter=0;" edge="1" parent="1" source="8rCehOjxCyW9MTJvdJmE-23" target="8rCehOjxCyW9MTJvdJmE-4">
          <mxGeometry relative="1" as="geometry">
            <mxPoint x="-630.0000000000014" y="160" as="sourcePoint" />
            <mxPoint x="-330" y="110" as="targetPoint" />
          </mxGeometry>
        </mxCell>
        <mxCell id="8rCehOjxCyW9MTJvdJmE-13" value="" style="endArrow=none;html=1;rounded=0;exitX=0.64;exitY=0.017;exitDx=0;exitDy=0;exitPerimeter=0;" edge="1" parent="1" source="8rCehOjxCyW9MTJvdJmE-9" target="8rCehOjxCyW9MTJvdJmE-4">
          <mxGeometry relative="1" as="geometry">
            <mxPoint x="-490" y="110" as="sourcePoint" />
            <mxPoint x="-330" y="110" as="targetPoint" />
          </mxGeometry>
        </mxCell>
        <mxCell id="8rCehOjxCyW9MTJvdJmE-14" value="" style="endArrow=none;html=1;rounded=0;exitX=0.75;exitY=1;exitDx=0;exitDy=0;entryX=0.44;entryY=-0.05;entryDx=0;entryDy=0;entryPerimeter=0;" edge="1" parent="1" source="8rCehOjxCyW9MTJvdJmE-4" target="8rCehOjxCyW9MTJvdJmE-10">
          <mxGeometry relative="1" as="geometry">
            <mxPoint x="-490" y="110" as="sourcePoint" />
            <mxPoint x="-330" y="110" as="targetPoint" />
          </mxGeometry>
        </mxCell>
        <mxCell id="8rCehOjxCyW9MTJvdJmE-15" value="AccountCreationDate" style="ellipse;whiteSpace=wrap;html=1;align=center;" vertex="1" parent="1">
          <mxGeometry x="-230" y="90" width="130" height="50" as="geometry" />
        </mxCell>
        <mxCell id="8rCehOjxCyW9MTJvdJmE-16" value="ProfilePicture" style="ellipse;whiteSpace=wrap;html=1;align=center;" vertex="1" parent="1">
          <mxGeometry x="-320" y="130" width="100" height="40" as="geometry" />
        </mxCell>
        <mxCell id="8rCehOjxCyW9MTJvdJmE-17" value="" style="endArrow=none;html=1;rounded=0;exitX=0.907;exitY=0.983;exitDx=0;exitDy=0;exitPerimeter=0;entryX=0.4;entryY=0.017;entryDx=0;entryDy=0;entryPerimeter=0;" edge="1" parent="1" source="8rCehOjxCyW9MTJvdJmE-4" target="8rCehOjxCyW9MTJvdJmE-16">
          <mxGeometry relative="1" as="geometry">
            <mxPoint x="-490" y="110" as="sourcePoint" />
            <mxPoint x="-330" y="110" as="targetPoint" />
          </mxGeometry>
        </mxCell>
        <mxCell id="8rCehOjxCyW9MTJvdJmE-18" value="" style="endArrow=none;html=1;rounded=0;exitX=1;exitY=0.75;exitDx=0;exitDy=0;entryX=0.349;entryY=-0.053;entryDx=0;entryDy=0;entryPerimeter=0;" edge="1" parent="1" source="8rCehOjxCyW9MTJvdJmE-4" target="8rCehOjxCyW9MTJvdJmE-15">
          <mxGeometry relative="1" as="geometry">
            <mxPoint x="-490" y="110" as="sourcePoint" />
            <mxPoint x="-330" y="110" as="targetPoint" />
          </mxGeometry>
        </mxCell>
        <mxCell id="8rCehOjxCyW9MTJvdJmE-23" value="UserID" style="ellipse;whiteSpace=wrap;html=1;align=center;fontStyle=4;" vertex="1" parent="1">
          <mxGeometry x="-710" y="80" width="100" height="40" as="geometry" />
        </mxCell>
        <mxCell id="8rCehOjxCyW9MTJvdJmE-24" value="Username" style="ellipse;whiteSpace=wrap;html=1;align=center;" vertex="1" parent="1">
          <mxGeometry x="-630" y="110" width="100" height="40" as="geometry" />
        </mxCell>
        <mxCell id="8rCehOjxCyW9MTJvdJmE-25" value="" style="endArrow=none;html=1;rounded=0;exitX=0.953;exitY=0.25;exitDx=0;exitDy=0;exitPerimeter=0;entryX=0.158;entryY=1.032;entryDx=0;entryDy=0;entryPerimeter=0;" edge="1" parent="1" source="8rCehOjxCyW9MTJvdJmE-24" target="8rCehOjxCyW9MTJvdJmE-4">
          <mxGeometry relative="1" as="geometry">
            <mxPoint x="-490" y="110" as="sourcePoint" />
            <mxPoint x="-470" y="120" as="targetPoint" />
          </mxGeometry>
        </mxCell>
        <mxCell id="8rCehOjxCyW9MTJvdJmE-27" value="&lt;font style=&quot;font-size: 18px;&quot;&gt;Email&lt;/font&gt;" style="whiteSpace=wrap;html=1;align=center;" vertex="1" parent="1">
          <mxGeometry x="-464" y="-360" width="100" height="40" as="geometry" />
        </mxCell>
        <mxCell id="8rCehOjxCyW9MTJvdJmE-29" value="EmailID" style="ellipse;whiteSpace=wrap;html=1;align=center;fontStyle=4;" vertex="1" parent="1">
          <mxGeometry x="-660" y="-480" width="100" height="40" as="geometry" />
        </mxCell>
        <mxCell id="8rCehOjxCyW9MTJvdJmE-30" value="Body" style="ellipse;whiteSpace=wrap;html=1;align=center;" vertex="1" parent="1">
          <mxGeometry x="-380" y="-540" width="100" height="40" as="geometry" />
        </mxCell>
        <mxCell id="8rCehOjxCyW9MTJvdJmE-31" value="Subject" style="ellipse;whiteSpace=wrap;html=1;align=center;" vertex="1" parent="1">
          <mxGeometry x="-490" y="-550" width="100" height="40" as="geometry" />
        </mxCell>
        <mxCell id="8rCehOjxCyW9MTJvdJmE-33" value="SenderID" style="ellipse;whiteSpace=wrap;html=1;align=center;" vertex="1" parent="1">
          <mxGeometry x="-580" y="-520" width="100" height="40" as="geometry" />
        </mxCell>
        <mxCell id="8rCehOjxCyW9MTJvdJmE-34" value="ReadStatus" style="ellipse;whiteSpace=wrap;html=1;align=center;" vertex="1" parent="1">
          <mxGeometry x="-290" y="-510" width="100" height="40" as="geometry" />
        </mxCell>
        <mxCell id="8rCehOjxCyW9MTJvdJmE-35" value="" style="endArrow=none;html=1;rounded=0;exitX=1;exitY=1;exitDx=0;exitDy=0;entryX=0;entryY=0;entryDx=0;entryDy=0;" edge="1" parent="1" source="8rCehOjxCyW9MTJvdJmE-29" target="8rCehOjxCyW9MTJvdJmE-27">
          <mxGeometry relative="1" as="geometry">
            <mxPoint x="-460" y="-310" as="sourcePoint" />
            <mxPoint x="-460" y="-200" as="targetPoint" />
          </mxGeometry>
        </mxCell>
        <mxCell id="8rCehOjxCyW9MTJvdJmE-37" value="" style="endArrow=none;html=1;rounded=0;entryX=0.129;entryY=-0.05;entryDx=0;entryDy=0;entryPerimeter=0;exitX=0.632;exitY=1.045;exitDx=0;exitDy=0;exitPerimeter=0;" edge="1" parent="1" source="8rCehOjxCyW9MTJvdJmE-33" target="8rCehOjxCyW9MTJvdJmE-27">
          <mxGeometry relative="1" as="geometry">
            <mxPoint x="-464" y="-240" as="sourcePoint" />
            <mxPoint x="-304" y="-240" as="targetPoint" />
          </mxGeometry>
        </mxCell>
        <mxCell id="8rCehOjxCyW9MTJvdJmE-38" value="" style="endArrow=none;html=1;rounded=0;entryX=0.34;entryY=0;entryDx=0;entryDy=0;entryPerimeter=0;exitX=0.5;exitY=1;exitDx=0;exitDy=0;" edge="1" parent="1" source="8rCehOjxCyW9MTJvdJmE-31" target="8rCehOjxCyW9MTJvdJmE-27">
          <mxGeometry relative="1" as="geometry">
            <mxPoint x="-350" y="-440" as="sourcePoint" />
            <mxPoint x="-416.00000000000045" y="-360" as="targetPoint" />
          </mxGeometry>
        </mxCell>
        <mxCell id="8rCehOjxCyW9MTJvdJmE-40" value="" style="endArrow=none;html=1;rounded=0;exitX=0.675;exitY=-0.081;exitDx=0;exitDy=0;exitPerimeter=0;entryX=0.294;entryY=0.969;entryDx=0;entryDy=0;entryPerimeter=0;" edge="1" parent="1" source="8rCehOjxCyW9MTJvdJmE-27" target="8rCehOjxCyW9MTJvdJmE-30">
          <mxGeometry relative="1" as="geometry">
            <mxPoint x="-460" y="-130" as="sourcePoint" />
            <mxPoint x="-350" y="-420" as="targetPoint" />
          </mxGeometry>
        </mxCell>
        <mxCell id="8rCehOjxCyW9MTJvdJmE-45" value="" style="endArrow=none;html=1;rounded=0;exitX=0.873;exitY=-0.062;exitDx=0;exitDy=0;entryX=0;entryY=1;entryDx=0;entryDy=0;exitPerimeter=0;" edge="1" parent="1" source="8rCehOjxCyW9MTJvdJmE-27" target="8rCehOjxCyW9MTJvdJmE-34">
          <mxGeometry relative="1" as="geometry">
            <mxPoint x="-460" y="-130" as="sourcePoint" />
            <mxPoint x="-300" y="-130" as="targetPoint" />
          </mxGeometry>
        </mxCell>
        <mxCell id="8rCehOjxCyW9MTJvdJmE-46" value="&lt;font style=&quot;font-size: 18px;&quot;&gt;Attachment&lt;/font&gt;" style="whiteSpace=wrap;html=1;align=center;" vertex="1" parent="1">
          <mxGeometry x="-20" y="-350" width="100" height="40" as="geometry" />
        </mxCell>
        <mxCell id="8rCehOjxCyW9MTJvdJmE-49" value="" style="endArrow=none;html=1;rounded=0;entryX=0;entryY=0.5;entryDx=0;entryDy=0;exitX=1;exitY=0.5;exitDx=0;exitDy=0;" edge="1" parent="1" source="8rCehOjxCyW9MTJvdJmE-121" target="8rCehOjxCyW9MTJvdJmE-46">
          <mxGeometry relative="1" as="geometry">
            <mxPoint x="-90" y="-330" as="sourcePoint" />
            <mxPoint x="10" y="-120" as="targetPoint" />
          </mxGeometry>
        </mxCell>
        <mxCell id="8rCehOjxCyW9MTJvdJmE-50" value="N" style="resizable=0;html=1;whiteSpace=wrap;align=right;verticalAlign=bottom;" connectable="0" vertex="1" parent="8rCehOjxCyW9MTJvdJmE-49">
          <mxGeometry x="1" relative="1" as="geometry">
            <mxPoint x="-10" as="offset" />
          </mxGeometry>
        </mxCell>
        <mxCell id="8rCehOjxCyW9MTJvdJmE-53" value="UploadDate" style="ellipse;whiteSpace=wrap;html=1;align=center;" vertex="1" parent="1">
          <mxGeometry x="140" y="-240" width="100" height="40" as="geometry" />
        </mxCell>
        <mxCell id="8rCehOjxCyW9MTJvdJmE-54" value="Description" style="ellipse;whiteSpace=wrap;html=1;align=center;" vertex="1" parent="1">
          <mxGeometry x="190" y="-290" width="100" height="40" as="geometry" />
        </mxCell>
        <mxCell id="8rCehOjxCyW9MTJvdJmE-55" value="FileSize" style="ellipse;whiteSpace=wrap;html=1;align=center;" vertex="1" parent="1">
          <mxGeometry x="215" y="-340" width="100" height="40" as="geometry" />
        </mxCell>
        <mxCell id="8rCehOjxCyW9MTJvdJmE-56" value="FileType" style="ellipse;whiteSpace=wrap;html=1;align=center;" vertex="1" parent="1">
          <mxGeometry x="220" y="-390" width="100" height="40" as="geometry" />
        </mxCell>
        <mxCell id="8rCehOjxCyW9MTJvdJmE-58" value="FileName" style="ellipse;whiteSpace=wrap;html=1;align=center;" vertex="1" parent="1">
          <mxGeometry x="190" y="-440" width="100" height="40" as="geometry" />
        </mxCell>
        <mxCell id="8rCehOjxCyW9MTJvdJmE-59" value="AttachmentID" style="ellipse;whiteSpace=wrap;html=1;align=center;fontStyle=4;" vertex="1" parent="1">
          <mxGeometry x="130" y="-480" width="100" height="40" as="geometry" />
        </mxCell>
        <mxCell id="8rCehOjxCyW9MTJvdJmE-60" value="" style="endArrow=none;html=1;rounded=0;entryX=0.073;entryY=0.8;entryDx=0;entryDy=0;exitX=0.75;exitY=0;exitDx=0;exitDy=0;entryPerimeter=0;" edge="1" parent="1" source="8rCehOjxCyW9MTJvdJmE-46" target="8rCehOjxCyW9MTJvdJmE-59">
          <mxGeometry relative="1" as="geometry">
            <mxPoint x="80" y="-130" as="sourcePoint" />
            <mxPoint x="-90" y="-70" as="targetPoint" />
          </mxGeometry>
        </mxCell>
        <mxCell id="8rCehOjxCyW9MTJvdJmE-61" value="" style="endArrow=none;html=1;rounded=0;exitX=0.836;exitY=1.027;exitDx=0;exitDy=0;exitPerimeter=0;entryX=0.024;entryY=0.327;entryDx=0;entryDy=0;entryPerimeter=0;" edge="1" parent="1" source="8rCehOjxCyW9MTJvdJmE-46" target="8rCehOjxCyW9MTJvdJmE-54">
          <mxGeometry relative="1" as="geometry">
            <mxPoint x="40" y="-50.45" as="sourcePoint" />
            <mxPoint x="200" y="-50.45" as="targetPoint" />
          </mxGeometry>
        </mxCell>
        <mxCell id="8rCehOjxCyW9MTJvdJmE-62" value="" style="endArrow=none;html=1;rounded=0;exitX=0.5;exitY=1;exitDx=0;exitDy=0;entryX=0;entryY=0.5;entryDx=0;entryDy=0;" edge="1" parent="1" source="8rCehOjxCyW9MTJvdJmE-46" target="8rCehOjxCyW9MTJvdJmE-53">
          <mxGeometry relative="1" as="geometry">
            <mxPoint x="-20" y="40" as="sourcePoint" />
            <mxPoint x="140" y="40" as="targetPoint" />
          </mxGeometry>
        </mxCell>
        <mxCell id="8rCehOjxCyW9MTJvdJmE-63" value="" style="endArrow=none;html=1;rounded=0;exitX=1;exitY=0.5;exitDx=0;exitDy=0;entryX=0;entryY=0.5;entryDx=0;entryDy=0;" edge="1" parent="1" source="8rCehOjxCyW9MTJvdJmE-46" target="8rCehOjxCyW9MTJvdJmE-56">
          <mxGeometry relative="1" as="geometry">
            <mxPoint x="-10" y="10" as="sourcePoint" />
            <mxPoint x="150" y="10" as="targetPoint" />
          </mxGeometry>
        </mxCell>
        <mxCell id="8rCehOjxCyW9MTJvdJmE-64" value="" style="endArrow=none;html=1;rounded=0;entryX=0.005;entryY=0.75;entryDx=0;entryDy=0;entryPerimeter=0;exitX=1;exitY=0;exitDx=0;exitDy=0;" edge="1" parent="1" source="8rCehOjxCyW9MTJvdJmE-46" target="8rCehOjxCyW9MTJvdJmE-58">
          <mxGeometry relative="1" as="geometry">
            <mxPoint x="100" y="-90" as="sourcePoint" />
            <mxPoint x="260" y="-90" as="targetPoint" />
          </mxGeometry>
        </mxCell>
        <mxCell id="8rCehOjxCyW9MTJvdJmE-67" value="" style="endArrow=none;html=1;rounded=0;entryX=0;entryY=0.5;entryDx=0;entryDy=0;exitX=1;exitY=0.75;exitDx=0;exitDy=0;" edge="1" parent="1" source="8rCehOjxCyW9MTJvdJmE-46" target="8rCehOjxCyW9MTJvdJmE-55">
          <mxGeometry relative="1" as="geometry">
            <mxPoint x="30" y="-320" as="sourcePoint" />
            <mxPoint x="-90" y="-70" as="targetPoint" />
          </mxGeometry>
        </mxCell>
        <mxCell id="8rCehOjxCyW9MTJvdJmE-68" value="&lt;font style=&quot;font-size: 18px;&quot;&gt;Contact&lt;/font&gt;" style="whiteSpace=wrap;html=1;align=center;" vertex="1" parent="1">
          <mxGeometry x="-880" y="-30" width="100" height="40" as="geometry" />
        </mxCell>
        <mxCell id="8rCehOjxCyW9MTJvdJmE-75" value="ContactID" style="ellipse;whiteSpace=wrap;html=1;align=center;fontStyle=4;" vertex="1" parent="1">
          <mxGeometry x="-1110" y="-200" width="100" height="40" as="geometry" />
        </mxCell>
        <mxCell id="8rCehOjxCyW9MTJvdJmE-76" value="PhoneNumber" style="ellipse;whiteSpace=wrap;html=1;align=center;" vertex="1" parent="1">
          <mxGeometry x="-1110" y="-10" width="100" height="40" as="geometry" />
        </mxCell>
        <mxCell id="8rCehOjxCyW9MTJvdJmE-77" value="EmailAdrdess" style="ellipse;whiteSpace=wrap;html=1;align=center;" vertex="1" parent="1">
          <mxGeometry x="-1120" y="-70" width="100" height="40" as="geometry" />
        </mxCell>
        <mxCell id="8rCehOjxCyW9MTJvdJmE-78" value="ContactName" style="ellipse;whiteSpace=wrap;html=1;align=center;" vertex="1" parent="1">
          <mxGeometry x="-1120" y="-130" width="100" height="40" as="geometry" />
        </mxCell>
        <mxCell id="8rCehOjxCyW9MTJvdJmE-79" value="Notes" style="ellipse;whiteSpace=wrap;html=1;align=center;" vertex="1" parent="1">
          <mxGeometry x="-1100" y="55" width="100" height="40" as="geometry" />
        </mxCell>
        <mxCell id="8rCehOjxCyW9MTJvdJmE-80" value="" style="endArrow=none;html=1;rounded=0;exitX=1;exitY=1;exitDx=0;exitDy=0;entryX=0.146;entryY=0.028;entryDx=0;entryDy=0;entryPerimeter=0;" edge="1" parent="1" source="8rCehOjxCyW9MTJvdJmE-75" target="8rCehOjxCyW9MTJvdJmE-68">
          <mxGeometry relative="1" as="geometry">
            <mxPoint x="-680" y="-60" as="sourcePoint" />
            <mxPoint x="-520" y="-60" as="targetPoint" />
          </mxGeometry>
        </mxCell>
        <mxCell id="8rCehOjxCyW9MTJvdJmE-81" value="" style="endArrow=none;html=1;rounded=0;entryX=0.25;entryY=1;entryDx=0;entryDy=0;exitX=0.961;exitY=0.222;exitDx=0;exitDy=0;exitPerimeter=0;" edge="1" parent="1" source="8rCehOjxCyW9MTJvdJmE-79" target="8rCehOjxCyW9MTJvdJmE-68">
          <mxGeometry relative="1" as="geometry">
            <mxPoint x="-1030" y="-10.560000000000002" as="sourcePoint" />
            <mxPoint x="-870" y="-10.560000000000002" as="targetPoint" />
          </mxGeometry>
        </mxCell>
        <mxCell id="8rCehOjxCyW9MTJvdJmE-82" value="" style="endArrow=none;html=1;rounded=0;entryX=0;entryY=1;entryDx=0;entryDy=0;exitX=1;exitY=0.5;exitDx=0;exitDy=0;" edge="1" parent="1" source="8rCehOjxCyW9MTJvdJmE-76" target="8rCehOjxCyW9MTJvdJmE-68">
          <mxGeometry relative="1" as="geometry">
            <mxPoint x="-990" y="-60" as="sourcePoint" />
            <mxPoint x="-860" y="-60" as="targetPoint" />
          </mxGeometry>
        </mxCell>
        <mxCell id="8rCehOjxCyW9MTJvdJmE-83" value="" style="endArrow=none;html=1;rounded=0;entryX=0;entryY=0.5;entryDx=0;entryDy=0;exitX=1;exitY=0.5;exitDx=0;exitDy=0;" edge="1" parent="1" source="8rCehOjxCyW9MTJvdJmE-77" target="8rCehOjxCyW9MTJvdJmE-68">
          <mxGeometry relative="1" as="geometry">
            <mxPoint x="-1070" y="-100.56" as="sourcePoint" />
            <mxPoint x="-910" y="-100.56" as="targetPoint" />
          </mxGeometry>
        </mxCell>
        <mxCell id="8rCehOjxCyW9MTJvdJmE-84" value="" style="endArrow=none;html=1;rounded=0;entryX=0;entryY=0.25;entryDx=0;entryDy=0;exitX=1.048;exitY=0.706;exitDx=0;exitDy=0;exitPerimeter=0;" edge="1" parent="1" source="8rCehOjxCyW9MTJvdJmE-78" target="8rCehOjxCyW9MTJvdJmE-68">
          <mxGeometry relative="1" as="geometry">
            <mxPoint x="-1060" y="-110.56" as="sourcePoint" />
            <mxPoint x="-900" y="-110.56" as="targetPoint" />
          </mxGeometry>
        </mxCell>
        <mxCell id="8rCehOjxCyW9MTJvdJmE-85" value="&lt;font style=&quot;font-size: 18px;&quot;&gt;Label&lt;/font&gt;" style="whiteSpace=wrap;html=1;align=center;" vertex="1" parent="1">
          <mxGeometry x="-870" y="-360" width="100" height="40" as="geometry" />
        </mxCell>
        <mxCell id="8rCehOjxCyW9MTJvdJmE-86" value="" style="endArrow=none;html=1;rounded=0;exitX=0;exitY=0.5;exitDx=0;exitDy=0;entryX=1;entryY=0.75;entryDx=0;entryDy=0;" edge="1" parent="1" source="8rCehOjxCyW9MTJvdJmE-125" target="8rCehOjxCyW9MTJvdJmE-85">
          <mxGeometry relative="1" as="geometry">
            <mxPoint x="-680" y="-70" as="sourcePoint" />
            <mxPoint x="-660" y="-120" as="targetPoint" />
          </mxGeometry>
        </mxCell>
        <mxCell id="8rCehOjxCyW9MTJvdJmE-87" value="N" style="resizable=0;html=1;whiteSpace=wrap;align=right;verticalAlign=bottom;" connectable="0" vertex="1" parent="8rCehOjxCyW9MTJvdJmE-86">
          <mxGeometry x="1" relative="1" as="geometry">
            <mxPoint x="20" as="offset" />
          </mxGeometry>
        </mxCell>
        <mxCell id="8rCehOjxCyW9MTJvdJmE-88" value="Color" style="ellipse;whiteSpace=wrap;html=1;align=center;" vertex="1" parent="1">
          <mxGeometry x="-1150" y="-370" width="100" height="40" as="geometry" />
        </mxCell>
        <mxCell id="8rCehOjxCyW9MTJvdJmE-89" value="Name" style="ellipse;whiteSpace=wrap;html=1;align=center;" vertex="1" parent="1">
          <mxGeometry x="-1130" y="-420" width="100" height="40" as="geometry" />
        </mxCell>
        <mxCell id="8rCehOjxCyW9MTJvdJmE-90" value="Description" style="ellipse;whiteSpace=wrap;html=1;align=center;" vertex="1" parent="1">
          <mxGeometry x="-1130" y="-320" width="100" height="40" as="geometry" />
        </mxCell>
        <mxCell id="8rCehOjxCyW9MTJvdJmE-92" value="LabelID" style="ellipse;whiteSpace=wrap;html=1;align=center;fontStyle=4;" vertex="1" parent="1">
          <mxGeometry x="-1090" y="-470" width="100" height="40" as="geometry" />
        </mxCell>
        <mxCell id="8rCehOjxCyW9MTJvdJmE-93" value="" style="endArrow=none;html=1;rounded=0;entryX=0.152;entryY=-0.033;entryDx=0;entryDy=0;entryPerimeter=0;exitX=0.981;exitY=0.778;exitDx=0;exitDy=0;exitPerimeter=0;" edge="1" parent="1" source="8rCehOjxCyW9MTJvdJmE-92" target="8rCehOjxCyW9MTJvdJmE-85">
          <mxGeometry relative="1" as="geometry">
            <mxPoint x="-1000" y="-450.56" as="sourcePoint" />
            <mxPoint x="-840" y="-450.56" as="targetPoint" />
          </mxGeometry>
        </mxCell>
        <mxCell id="8rCehOjxCyW9MTJvdJmE-94" value="" style="endArrow=none;html=1;rounded=0;entryX=0;entryY=0.25;entryDx=0;entryDy=0;exitX=1;exitY=0.5;exitDx=0;exitDy=0;" edge="1" parent="1" source="8rCehOjxCyW9MTJvdJmE-89" target="8rCehOjxCyW9MTJvdJmE-85">
          <mxGeometry relative="1" as="geometry">
            <mxPoint x="-1050" y="-390.56" as="sourcePoint" />
            <mxPoint x="-890" y="-390.56" as="targetPoint" />
          </mxGeometry>
        </mxCell>
        <mxCell id="8rCehOjxCyW9MTJvdJmE-95" value="" style="endArrow=none;html=1;rounded=0;exitX=1;exitY=0.5;exitDx=0;exitDy=0;entryX=0;entryY=0.75;entryDx=0;entryDy=0;" edge="1" parent="1" source="8rCehOjxCyW9MTJvdJmE-88" target="8rCehOjxCyW9MTJvdJmE-85">
          <mxGeometry relative="1" as="geometry">
            <mxPoint x="-800" y="-270" as="sourcePoint" />
            <mxPoint x="-640" y="-270" as="targetPoint" />
          </mxGeometry>
        </mxCell>
        <mxCell id="8rCehOjxCyW9MTJvdJmE-96" value="" style="endArrow=none;html=1;rounded=0;exitX=1;exitY=0.5;exitDx=0;exitDy=0;entryX=0;entryY=1;entryDx=0;entryDy=0;" edge="1" parent="1" source="8rCehOjxCyW9MTJvdJmE-90" target="8rCehOjxCyW9MTJvdJmE-85">
          <mxGeometry relative="1" as="geometry">
            <mxPoint x="-800" y="-270" as="sourcePoint" />
            <mxPoint x="-640" y="-270" as="targetPoint" />
          </mxGeometry>
        </mxCell>
        <mxCell id="8rCehOjxCyW9MTJvdJmE-103" value="FolderID" style="ellipse;whiteSpace=wrap;html=1;align=center;fontStyle=4;" vertex="1" parent="1">
          <mxGeometry x="170" y="-110" width="160" height="40" as="geometry" />
        </mxCell>
        <mxCell id="8rCehOjxCyW9MTJvdJmE-105" value="LastModifiedDate" style="ellipse;whiteSpace=wrap;html=1;align=center;" vertex="1" parent="1">
          <mxGeometry x="150" y="40" width="155" height="30" as="geometry" />
        </mxCell>
        <mxCell id="8rCehOjxCyW9MTJvdJmE-106" value="CreationDate" style="ellipse;whiteSpace=wrap;html=1;align=center;" vertex="1" parent="1">
          <mxGeometry x="190" y="-10" width="150" height="40" as="geometry" />
        </mxCell>
        <mxCell id="8rCehOjxCyW9MTJvdJmE-107" value="FolderName" style="ellipse;whiteSpace=wrap;html=1;align=center;" vertex="1" parent="1">
          <mxGeometry x="210" y="-60" width="150" height="40" as="geometry" />
        </mxCell>
        <mxCell id="8rCehOjxCyW9MTJvdJmE-109" value="" style="endArrow=none;html=1;rounded=0;exitX=0.883;exitY=-0.044;exitDx=0;exitDy=0;exitPerimeter=0;entryX=0.063;entryY=0.91;entryDx=0;entryDy=0;entryPerimeter=0;" edge="1" parent="1" source="8rCehOjxCyW9MTJvdJmE-100" target="8rCehOjxCyW9MTJvdJmE-103">
          <mxGeometry relative="1" as="geometry">
            <mxPoint x="-280" y="-70" as="sourcePoint" />
            <mxPoint x="-120" y="-70" as="targetPoint" />
          </mxGeometry>
        </mxCell>
        <mxCell id="8rCehOjxCyW9MTJvdJmE-110" value="" style="endArrow=none;html=1;rounded=0;entryX=0;entryY=0.5;entryDx=0;entryDy=0;exitX=1;exitY=0.25;exitDx=0;exitDy=0;" edge="1" parent="1" source="8rCehOjxCyW9MTJvdJmE-100" target="8rCehOjxCyW9MTJvdJmE-107">
          <mxGeometry relative="1" as="geometry">
            <mxPoint x="-50" y="-10" as="sourcePoint" />
            <mxPoint x="110" y="-10" as="targetPoint" />
          </mxGeometry>
        </mxCell>
        <mxCell id="8rCehOjxCyW9MTJvdJmE-111" value="" style="endArrow=none;html=1;rounded=0;entryX=0;entryY=0.5;entryDx=0;entryDy=0;" edge="1" parent="1" source="8rCehOjxCyW9MTJvdJmE-100" target="8rCehOjxCyW9MTJvdJmE-106">
          <mxGeometry relative="1" as="geometry">
            <mxPoint x="-20" y="-10" as="sourcePoint" />
            <mxPoint x="150" y="-1" as="targetPoint" />
          </mxGeometry>
        </mxCell>
        <mxCell id="8rCehOjxCyW9MTJvdJmE-113" value="" style="endArrow=none;html=1;rounded=0;entryX=0.065;entryY=0.244;entryDx=0;entryDy=0;entryPerimeter=0;exitX=1;exitY=0.75;exitDx=0;exitDy=0;" edge="1" parent="1" source="8rCehOjxCyW9MTJvdJmE-100" target="8rCehOjxCyW9MTJvdJmE-105">
          <mxGeometry relative="1" as="geometry">
            <mxPoint x="-280" y="-70" as="sourcePoint" />
            <mxPoint x="-120" y="-70" as="targetPoint" />
          </mxGeometry>
        </mxCell>
        <mxCell id="8rCehOjxCyW9MTJvdJmE-114" value="" style="endArrow=none;html=1;rounded=0;entryX=0;entryY=0.5;entryDx=0;entryDy=0;" edge="1" parent="1" target="8rCehOjxCyW9MTJvdJmE-100">
          <mxGeometry relative="1" as="geometry">
            <mxPoint x="-20" y="-10" as="sourcePoint" />
            <mxPoint x="130" y="10" as="targetPoint" />
          </mxGeometry>
        </mxCell>
        <mxCell id="8rCehOjxCyW9MTJvdJmE-100" value="&lt;span style=&quot;font-size: 18px;&quot;&gt;Folders&lt;/span&gt;" style="whiteSpace=wrap;html=1;align=center;" vertex="1" parent="1">
          <mxGeometry x="-30" y="-30" width="100" height="40" as="geometry" />
        </mxCell>
        <mxCell id="8rCehOjxCyW9MTJvdJmE-119" value="have" style="shape=rhombus;double=1;perimeter=rhombusPerimeter;whiteSpace=wrap;html=1;align=center;" vertex="1" parent="1">
          <mxGeometry x="-474" y="-210" width="120" height="60" as="geometry" />
        </mxCell>
        <mxCell id="8rCehOjxCyW9MTJvdJmE-121" value="can has" style="shape=rhombus;perimeter=rhombusPerimeter;whiteSpace=wrap;html=1;align=center;" vertex="1" parent="1">
          <mxGeometry x="-240" y="-360" width="120" height="60" as="geometry" />
        </mxCell>
        <mxCell id="8rCehOjxCyW9MTJvdJmE-123" value="" style="endArrow=none;html=1;rounded=0;entryX=0.5;entryY=1;entryDx=0;entryDy=0;exitX=0.5;exitY=0;exitDx=0;exitDy=0;" edge="1" parent="1" source="8rCehOjxCyW9MTJvdJmE-119" target="8rCehOjxCyW9MTJvdJmE-27">
          <mxGeometry relative="1" as="geometry">
            <mxPoint x="-240" y="-170" as="sourcePoint" />
            <mxPoint x="-80" y="-170" as="targetPoint" />
          </mxGeometry>
        </mxCell>
        <mxCell id="8rCehOjxCyW9MTJvdJmE-124" value="N" style="resizable=0;html=1;whiteSpace=wrap;align=right;verticalAlign=bottom;" connectable="0" vertex="1" parent="8rCehOjxCyW9MTJvdJmE-123">
          <mxGeometry x="1" relative="1" as="geometry">
            <mxPoint y="20" as="offset" />
          </mxGeometry>
        </mxCell>
        <mxCell id="8rCehOjxCyW9MTJvdJmE-125" value="can has" style="shape=rhombus;perimeter=rhombusPerimeter;whiteSpace=wrap;html=1;align=center;" vertex="1" parent="1">
          <mxGeometry x="-680" y="-360" width="120" height="60" as="geometry" />
        </mxCell>
        <mxCell id="8rCehOjxCyW9MTJvdJmE-130" value="" style="endArrow=none;html=1;rounded=0;entryX=1;entryY=0.5;entryDx=0;entryDy=0;" edge="1" parent="1" target="8rCehOjxCyW9MTJvdJmE-68">
          <mxGeometry relative="1" as="geometry">
            <mxPoint x="-670" y="-10" as="sourcePoint" />
            <mxPoint x="-490" y="-110" as="targetPoint" />
          </mxGeometry>
        </mxCell>
        <mxCell id="8rCehOjxCyW9MTJvdJmE-131" value="N" style="resizable=0;html=1;whiteSpace=wrap;align=right;verticalAlign=bottom;" connectable="0" vertex="1" parent="8rCehOjxCyW9MTJvdJmE-130">
          <mxGeometry x="1" relative="1" as="geometry">
            <mxPoint x="20" as="offset" />
          </mxGeometry>
        </mxCell>
        <mxCell id="8rCehOjxCyW9MTJvdJmE-134" value="" style="endArrow=none;html=1;rounded=0;exitX=0.5;exitY=0;exitDx=0;exitDy=0;entryX=0.5;entryY=1;entryDx=0;entryDy=0;" edge="1" parent="1">
          <mxGeometry relative="1" as="geometry">
            <mxPoint x="-414.48" y="-30" as="sourcePoint" />
            <mxPoint x="-414.48" y="-150" as="targetPoint" />
          </mxGeometry>
        </mxCell>
        <mxCell id="8rCehOjxCyW9MTJvdJmE-135" value="M" style="resizable=0;html=1;whiteSpace=wrap;align=left;verticalAlign=bottom;" connectable="0" vertex="1" parent="8rCehOjxCyW9MTJvdJmE-134">
          <mxGeometry x="-1" relative="1" as="geometry">
            <mxPoint x="-16" as="offset" />
          </mxGeometry>
        </mxCell>
        <mxCell id="8rCehOjxCyW9MTJvdJmE-137" value="" style="endArrow=none;html=1;rounded=0;exitX=1;exitY=0.5;exitDx=0;exitDy=0;entryX=0;entryY=0.75;entryDx=0;entryDy=0;" edge="1" parent="1" target="8rCehOjxCyW9MTJvdJmE-27">
          <mxGeometry relative="1" as="geometry">
            <mxPoint x="-560.0000000000002" y="-330" as="sourcePoint" />
            <mxPoint x="-500" y="-280" as="targetPoint" />
          </mxGeometry>
        </mxCell>
        <mxCell id="8rCehOjxCyW9MTJvdJmE-138" value="1" style="resizable=0;html=1;whiteSpace=wrap;align=right;verticalAlign=bottom;" connectable="0" vertex="1" parent="8rCehOjxCyW9MTJvdJmE-137">
          <mxGeometry x="1" relative="1" as="geometry">
            <mxPoint x="-6" as="offset" />
          </mxGeometry>
        </mxCell>
        <mxCell id="8rCehOjxCyW9MTJvdJmE-139" value="has" style="shape=rhombus;double=1;perimeter=rhombusPerimeter;whiteSpace=wrap;html=1;align=center;" vertex="1" parent="1">
          <mxGeometry x="-680" y="-40" width="120" height="60" as="geometry" />
        </mxCell>
        <mxCell id="8rCehOjxCyW9MTJvdJmE-140" value="" style="endArrow=none;html=1;rounded=0;exitX=1;exitY=0.5;exitDx=0;exitDy=0;entryX=0;entryY=0.5;entryDx=0;entryDy=0;" edge="1" parent="1" source="8rCehOjxCyW9MTJvdJmE-139" target="8rCehOjxCyW9MTJvdJmE-4">
          <mxGeometry relative="1" as="geometry">
            <mxPoint x="-630" y="-180" as="sourcePoint" />
            <mxPoint x="-470" y="-180" as="targetPoint" />
          </mxGeometry>
        </mxCell>
        <mxCell id="8rCehOjxCyW9MTJvdJmE-141" value="1" style="resizable=0;html=1;whiteSpace=wrap;align=right;verticalAlign=bottom;" connectable="0" vertex="1" parent="8rCehOjxCyW9MTJvdJmE-140">
          <mxGeometry x="1" relative="1" as="geometry" />
        </mxCell>
        <mxCell id="8rCehOjxCyW9MTJvdJmE-142" value="" style="endArrow=none;html=1;rounded=0;entryX=1;entryY=0.75;entryDx=0;entryDy=0;exitX=0;exitY=0.5;exitDx=0;exitDy=0;" edge="1" parent="1" source="8rCehOjxCyW9MTJvdJmE-121" target="8rCehOjxCyW9MTJvdJmE-27">
          <mxGeometry relative="1" as="geometry">
            <mxPoint x="-340" y="-180" as="sourcePoint" />
            <mxPoint x="-180" y="-180" as="targetPoint" />
          </mxGeometry>
        </mxCell>
        <mxCell id="8rCehOjxCyW9MTJvdJmE-143" value="1" style="resizable=0;html=1;whiteSpace=wrap;align=right;verticalAlign=bottom;" connectable="0" vertex="1" parent="8rCehOjxCyW9MTJvdJmE-142">
          <mxGeometry x="1" relative="1" as="geometry">
            <mxPoint x="10" as="offset" />
          </mxGeometry>
        </mxCell>
        <mxCell id="8rCehOjxCyW9MTJvdJmE-144" value="has" style="shape=rhombus;double=1;perimeter=rhombusPerimeter;whiteSpace=wrap;html=1;align=center;" vertex="1" parent="1">
          <mxGeometry x="-240" y="-40" width="120" height="60" as="geometry" />
        </mxCell>
        <mxCell id="8rCehOjxCyW9MTJvdJmE-145" value="" style="endArrow=none;html=1;rounded=0;entryX=1;entryY=0.5;entryDx=0;entryDy=0;exitX=0;exitY=0.5;exitDx=0;exitDy=0;" edge="1" parent="1" source="8rCehOjxCyW9MTJvdJmE-144" target="8rCehOjxCyW9MTJvdJmE-4">
          <mxGeometry relative="1" as="geometry">
            <mxPoint x="-230" y="-180" as="sourcePoint" />
            <mxPoint x="-70" y="-180" as="targetPoint" />
          </mxGeometry>
        </mxCell>
        <mxCell id="8rCehOjxCyW9MTJvdJmE-146" value="1" style="resizable=0;html=1;whiteSpace=wrap;align=right;verticalAlign=bottom;" connectable="0" vertex="1" parent="8rCehOjxCyW9MTJvdJmE-145">
          <mxGeometry x="1" relative="1" as="geometry">
            <mxPoint x="10" as="offset" />
          </mxGeometry>
        </mxCell>
        <mxCell id="8rCehOjxCyW9MTJvdJmE-149" value="" style="endArrow=none;html=1;rounded=0;exitX=1;exitY=0.5;exitDx=0;exitDy=0;entryX=0;entryY=0.5;entryDx=0;entryDy=0;" edge="1" parent="1" source="8rCehOjxCyW9MTJvdJmE-144" target="8rCehOjxCyW9MTJvdJmE-100">
          <mxGeometry relative="1" as="geometry">
            <mxPoint x="-210" y="-50" as="sourcePoint" />
            <mxPoint x="-50" y="-50" as="targetPoint" />
          </mxGeometry>
        </mxCell>
        <mxCell id="8rCehOjxCyW9MTJvdJmE-150" value="N" style="resizable=0;html=1;whiteSpace=wrap;align=right;verticalAlign=bottom;" connectable="0" vertex="1" parent="8rCehOjxCyW9MTJvdJmE-149">
          <mxGeometry x="1" relative="1" as="geometry" />
        </mxCell>
        <mxCell id="8rCehOjxCyW9MTJvdJmE-151" value="Timestamp" style="ellipse;whiteSpace=wrap;html=1;align=center;" vertex="1" parent="1">
          <mxGeometry x="-240" y="-460" width="100" height="40" as="geometry" />
        </mxCell>
        <mxCell id="8rCehOjxCyW9MTJvdJmE-153" value="" style="endArrow=none;html=1;rounded=0;entryX=-0.017;entryY=0.71;entryDx=0;entryDy=0;entryPerimeter=0;exitX=1;exitY=0.25;exitDx=0;exitDy=0;" edge="1" parent="1" source="8rCehOjxCyW9MTJvdJmE-27" target="8rCehOjxCyW9MTJvdJmE-151">
          <mxGeometry relative="1" as="geometry">
            <mxPoint x="-340" y="-360" as="sourcePoint" />
            <mxPoint x="-330" y="-320" as="targetPoint" />
          </mxGeometry>
        </mxCell>
      </root>
    </mxGraphModel>
  </diagram>
</mxfile>
